<?xml version="1.0" encoding="UTF-8"?>
<svg version="1.1" viewBox="0 0 2048 985" width="1280" height="1280" xmlns="http://www.w3.org/2000/svg">
<path transform="translate(0)" d="m0 0h2048v985h-2048z" fill="#0C0A0A"/>
<path transform="translate(311,291)" d="m0 0h107l57 2 31 2 27 3 12 3 16 8 8 7 8 9 5 11 5 19 4 36 2 35v59l-2 30-3 27-4 20-6 16-9 11-7 6-10 6-12 4-19 3-36 3-45 2-53 1h-57l-45-1-46-2-36-3-20-4-11-4-11-7-9-10-6-10-5-13-4-20-3-29-2-44v-33l2-40 4-35 4-19 6-13 8-11 8-7 14-7 15-4 25-3 52-3z" fill="#FE130A"/>
<path transform="translate(1311,303)" d="m0 0h44l1 104 11-12 6-5 12-5 5-1h10l12 3 9 6 6 7 5 12 3 9 3 21 1 26v47l-2 25-4 20-6 14-6 8-7 6-8 4-4 1h-17l-10-3-9-5-7-6-4-6-2 2-4 15h-38l-1-55v-209z" fill="#FAFAFA"/>
<path transform="translate(835,384)" d="m0 0h11l15 2 16 7 11 11 8 15 4 13 2 12 1 12v68l-3 21-4 15-7 14-10 10-10 5-14 4-12 1h-10l-15-2-12-5-11-8-7-9-5-11-4-16-2-18-1-25v-24l2-32 3-16 4-12 5-9 8-10 11-7 12-4z" fill="#FAFAFA"/>
<path transform="translate(1513,384)" d="m0 0h17l16 3 8 4 10 9 6 9 5 12 3 15 1 10 1 22v36l-76 1v26l2 18 5 10 6 2 9-1 6-4 4-11 2-16 5-1 23 1 11 1 1 1v15l-3 15-6 12-7 8-14 8-14 4-19 1-12-2-12-3-11-7-8-9-7-15-4-15-2-14-1-13v-52l1-17 5-24 5-12 6-9 8-8 8-5 13-4z" fill="#FAFAFA"/>
<path transform="translate(1160,388)" d="m0 0h45l1 1 1 155 2 11 3 4 3 1h9l6-3 6-6 1-7v-154l1-2h45l1 1v201l-2 1h-33l-3-9-3-15-8 11-9 8-12 6-11 2-15-1-9-4-8-7-5-7-4-12-2-13-1-19v-140z" fill="#F9F9F9"/>
<path transform="translate(927,388)" d="m0 0h45l1 1 1 159 3 10 5 2h8l8-4 5-6 1-162h46l1 2-1 200-1 1h-35l-4-24-3 3-7 9-7 7-12 6-13 2-13-1-10-4-9-8-6-12-3-14-1-10v-155z" fill="#FAFAFA"/>
<path transform="translate(640,313)" d="m0 0h43l2 1 7 31 9 41 11 55v10h2l4-24 6-30 8-36 9-41 3-7h43l1 5-17 61-18 64-15 53-1 5-1 89h-45l-1-87-3-15-16-58-23-83-8-29z" fill="#FAFAFA"/>
<path transform="translate(1039,313)" d="m0 0h113l22 1v36h-45v239l-3 2h-41l-1-1-1-239-44-1-1-2v-34z" fill="#FAFAFA"/>
<path transform="translate(317,384)" d="m0 0 5 1 24 14 49 28 24 14 15 9 1 4-22 12-17 10-26 15-24 14-19 11-8 5-2-1z" fill="#FBFBFB"/>
<path transform="translate(1708,232)" d="m0 0 15 1 8 11 16 25 26 40 6 9v2h2l-1-5v-67l1-16 15 1v115l-14 1-5-5-10-15-11-17-16-25-16-24-1 85h-16v-115z" fill="#B0AFAF"/>
<path transform="translate(1370,417)" d="m0 0h8l6 3 4 6 3 14 1 11v75l-3 20-4 9-5 4-2 1h-9l-9-4-4-4-1-2v-116l4-8 7-7z" fill="#0C0A0A"/>
<path transform="translate(839,416)" d="m0 0 8 2 5 5 3 8 1 5 1 16v79l-2 16-3 8-5 5-5 2-8-1-5-5-3-5-2-10-1-12v-41l1-48 3-15 5-7z" fill="#0C0A0A"/>
<path transform="translate(1517,415)" d="m0 0 9 1 5 4 3 8 2 15v34h-33v-24l1-20 2-8 4-6 4-3z" fill="#0C0A0A"/>
<path transform="translate(1665,233)" d="m0 0h15l1 1v114l-2 1-14-1z" fill="#B0AFAF"/>
</svg>
