<?xml version="1.0" standalone="no"?>
<!DOCTYPE svg PUBLIC "-//W3C//DTD SVG 20010904//EN"
 "http://www.w3.org/TR/2001/REC-SVG-20010904/DTD/svg10.dtd">
<svg version="1.0" xmlns="http://www.w3.org/2000/svg"
 width="92.000000pt" height="115.000000pt" viewBox="0 0 92.000000 115.000000"
 preserveAspectRatio="xMidYMid meet">
<metadata>
Created by potrace 1.10, written by Peter Selinger 2001-2011
</metadata>
<g transform="translate(0.000000,115.000000) scale(0.100000,-0.100000)"
fill="#000000" stroke="none">
<path d="M402 920 c-18 -11 -40 -36 -48 -55 -8 -19 -18 -35 -23 -35 -5 0 -30
-21 -55 -46 -60 -60 -76 -114 -76 -257 l0 -110 -40 -43 c-43 -47 -49 -76 -24
-112 14 -20 23 -22 109 -22 l95 0 14 -33 c18 -45 61 -77 101 -77 25 0 40 8 64
35 17 20 31 45 31 55 0 19 7 20 98 20 63 0 102 4 110 12 7 7 12 30 12 53 0 34
-6 47 -35 75 l-35 34 0 117 c0 78 -5 131 -15 159 -18 51 -64 111 -100 130 -15
8 -33 29 -40 47 -14 32 -66 73 -95 73 -8 0 -30 -9 -48 -20z m81 -21 c28 -15
37 -28 37 -56 0 -16 11 -28 38 -42 88 -45 115 -107 118 -276 l3 -130 36 -33
c25 -23 35 -41 35 -62 l0 -30 -300 0 -300 0 0 27 c0 18 13 40 35 63 l36 37 3
129 c2 107 6 137 23 174 23 49 53 81 97 104 17 8 31 25 33 37 4 28 21 49 48
59 28 12 33 12 58 -1z m40 -686 c-12 -36 -36 -53 -73 -53 -37 0 -61 17 -73 53
-6 15 2 17 73 17 71 0 79 -2 73 -17z"/>
<path d="M413 789 c-107 -22 -150 -103 -152 -288 l-2 -116 -34 -35 c-19 -20
-35 -38 -35 -40 0 -3 117 -5 260 -5 143 0 260 3 260 6 0 4 -15 20 -34 37 l-34
29 -4 134 c-3 113 -7 141 -26 179 -36 74 -120 116 -199 99z m110 -44 c18 -8
43 -31 56 -51 22 -32 25 -48 29 -172 3 -95 8 -144 18 -159 l14 -23 -191 0
c-177 0 -190 1 -178 16 10 12 16 60 20 158 6 157 16 189 71 225 40 25 115 28
161 6z"/>
</g>
</svg>
