<?xml version="1.0" standalone="no"?>
<!DOCTYPE svg PUBLIC "-//W3C//DTD SVG 20010904//EN"
 "http://www.w3.org/TR/2001/REC-SVG-20010904/DTD/svg10.dtd">
<svg version="1.0" xmlns="http://www.w3.org/2000/svg"
 width="312.000000pt" height="229.000000pt" viewBox="0 0 312.000000 229.000000"
 preserveAspectRatio="xMidYMid meet">
<metadata>
Created by potrace 1.10, written by Peter Selinger 2001-2011
</metadata>
<g transform="translate(0.000000,229.000000) scale(0.100000,-0.100000)"
fill="#000000" stroke="none">
<path d="M140 1115 l0 -995 1110 0 1110 0 0 305 c0 168 4 305 9 305 4 0 124
-81 265 -180 142 -99 259 -180 262 -180 2 0 4 335 4 745 0 410 -2 745 -4 745
-3 0 -120 -81 -262 -180 -141 -99 -261 -180 -265 -180 -5 0 -9 137 -9 305 l0
305 -1110 0 -1110 0 0 -995z m2122 531 l3 -355 255 179 c140 99 258 179 263
180 4 0 7 -241 7 -535 0 -294 -3 -535 -7 -535 -5 1 -123 82 -263 180 l-255
180 -3 -355 -2 -355 -1005 0 -1005 0 0 885 0 885 1005 0 1005 0 2 -354z"/>
<path d="M1140 1435 l0 -215 -215 0 -215 0 0 -105 0 -105 215 0 215 0 2 -212
3 -213 108 -3 107 -3 0 216 0 215 215 0 215 0 0 105 0 105 -215 0 -215 0 0
215 0 215 -110 0 -110 0 0 -215z"/>
</g>
</svg>
